<mxfile host="app.diagrams.net" modified="2023-11-27T11:14:10.453Z" agent="Mozilla/5.0 (X11; Linux x86_64; rv:109.0) Gecko/20100101 Firefox/112.0" version="22.1.4" etag="Qucy0TMZC-rqFCzRqJIi" type="github">
  <diagram name="PÃ¡gina-1" id="Jhj_VAIq9rwB18Iu8WfR">
    <mxGraphModel>
      <root>
        <mxCell id="0" />
        <mxCell id="1" parent="0" />
      </root>
    </mxGraphModel>
  </diagram>
</mxfile>
